<svg version="1.1" id="Layer_1" xmlns="http://www.w3.org/2000/svg" x="0" y="0" viewBox="0 0 256 256" style="enable-background:new 0 0 256 256" xml:space="preserve"><style>.st6{fill:#1c868e}.st7{fill:#40c4df}.st9{fill:#56c1b3}</style><path class="st6" d="M228.239 90.163v124.4H25.158v-124.4c0-8.87 6.64-16.2 15.23-17.26.71-.09 1.44-.14 2.17-.14h168.28c9.611 0 17.401 7.79 17.401 17.4z"/><path class="st7" d="M228.239 90.163v124.4H40.388V72.903c.71-.09 1.44-.14 2.17-.14h168.28c9.611 0 17.401 7.79 17.401 17.4z"/><path class="st9" d="M250.298 220.633v4.67c0 10.06-8.15 18.22-18.21 18.22H21.309c-10.06 0-18.21-8.16-18.21-18.22v-4.67c0-3.35 2.72-6.07 6.07-6.07h235.06c3.35 0 6.069 2.72 6.069 6.07z"/><path d="M250.298 220.633v4.67c0 10.06-8.15 18.22-18.21 18.22H36.539c-10.06 0-18.21-8.16-18.21-18.22v-4.67c0-3.35 2.72-6.07 6.07-6.07h219.83c3.35 0 6.069 2.72 6.069 6.07z" style="fill:#7befe4"/><path class="st9" d="M154.828 214.563v5.111c0 5.172-4.201 9.373-9.373 9.373H107.94c-5.172 0-9.373-4.201-9.373-9.373v-5.111h56.261z"/><path d="M217.449 88.563v126h-181.5v-126c0-2.57 1.94-4.69 4.44-4.96.18-.03.37-.04.56-.04h171.5c2.76 0 5 2.24 5 5z" style="fill:#d8d6d7"/><path d="M217.449 88.563v126H51.178v-131h161.27a5.002 5.002 0 0 1 5.001 5z" style="fill:#fff"/><path class="st7" d="M228.239 90.163v124.4h-10.79v-126c0-2.76-2.24-5-5-5h-171.5c-.19 0-.38.01-.56.04v-10.7c.71-.09 1.44-.14 2.17-.14h168.28c9.61 0 17.4 7.79 17.4 17.4z"/><path class="st6" d="M235.503 48.647v39.741c0 8.979-26.689 16.258-59.611 16.258s-59.611-7.279-59.611-16.258V47.293l119.222 1.354z"/><path class="st7" d="M135.559 143.646h-.333a5 5 0 0 1-5-5v-12.667a5 5 0 0 1 5-5h.333a5 5 0 0 1 5 5v12.667a5 5 0 0 1-5 5zM252.882 40.519l-76.083 30.472-77.896-30.472 77.896-28.04z"/><path d="m253.573 38.642-76.082-28.04a2 2 0 0 0-1.369-.005l-77.896 28.04c-1.733.624-1.768 3.073-.051 3.744l16.107 6.301V70.77h-71.7c-10.697 0-19.4 8.703-19.4 19.4v122.396H9.192c-4.45 0-8.07 3.62-8.07 8.07v4.675c0 11.145 9.066 20.211 20.211 20.211H232.12c11.145 0 20.211-9.066 20.211-20.211v-4.675c0-4.45-3.62-8.07-8.07-8.07h-13.988V97.318c4.538-2.501 7.232-5.483 7.232-8.93V48.832l16.121-6.457c1.693-.678 1.665-3.1-.053-3.733zM133.225 101.78v17.493c-2.887.863-5 3.541-5 6.705v12.667c0 3.859 3.141 7 7 7h.334c3.859 0 7-3.141 7-7v-12.667c0-3.284-2.278-6.041-5.334-6.791v-16.411c23.216 5.288 55.959 5.073 78.246-.208V212.56h-177.5v-124c0-1.654 1.346-3 3-3h73.31v2.828c.001 5.815 7.643 10.314 18.944 13.392zm0-4.172c-9.633-2.797-14.944-6.292-14.944-9.22V50.247l14.944 5.846v41.515zm2 25.371h.334c1.654 0 3 1.346 3 3v12.667c0 1.654-1.346 3-3 3h-.334c-1.654 0-3-1.346-3-3v-12.667c0-1.655 1.346-3 3-3zm17.63 93.591v3.106c0 4.065-3.307 7.373-7.372 7.373h-37.515c-4.065 0-7.373-3.308-7.373-7.373v-3.106h52.26zM27.182 90.17c0-8.492 6.908-15.4 15.4-15.4h71.7v6.79h-73.31c-3.86 0-7 3.141-7 7v124.006h-6.79V90.17zM244.26 216.566a4.075 4.075 0 0 1 4.07 4.07v4.675c0 8.938-7.272 16.211-16.211 16.211H21.332c-8.939 0-16.211-7.272-16.211-16.211v-4.675a4.075 4.075 0 0 1 4.07-4.07c.168 0 14.154.005 87.404.005v3.106c0 6.271 5.102 11.373 11.373 11.373h37.515c6.271 0 11.372-5.102 11.372-11.373v-3.106l87.405-.005zm-24.788-4V101.527c2.468-.702 4.749-1.473 6.8-2.314v113.353h-6.8zm14.032-124.178c0 10.993-57.485 19.638-96.278 10.279v-41.01l38.846 15.196c.474.186 1 .184 1.472-.006l55.961-22.414v37.955zM176.791 68.84 140.69 54.718l36.243-13.701c2.475-.936 1.056-4.677-1.414-3.742l-40.388 15.269-17.913-7.007a1.948 1.948 0 0 0-.455-.178l-12.172-4.761 72.2-25.989 70.517 25.988-70.517 28.243z" style="fill:#491352"/></svg>