<svg xmlns="http://www.w3.org/2000/svg" version="1.1" xmlns:xlink="http://www.w3.org/1999/xlink" xmlns:svgjs="http://svgjs.dev/svgjs" width="1430" height="558" preserveAspectRatio="none" viewBox="0 0 1430 558"><g mask="url(&quot;#SvgjsMask1336&quot;)" fill="none"><path d="M-55.69 364.17L-55.69 364.17" stroke="rgba(0, 86, 255, 0.23)" stroke-width="1.5"></path><path d="M-55.69 364.17L59.51 345.57" stroke="rgba(0, 86, 255, 0.23)" stroke-width="1.5"></path><path d="M-55.69 364.17L-42.08 508.46" stroke="rgba(0, 86, 255, 0.23)" stroke-width="1.5"></path><path d="M-55.69 364.17L197.46 494.78" stroke="rgba(0, 86, 255, 0.23)" stroke-width="1.5"></path><path d="M-42.08 508.46L-42.08 508.46" stroke="rgba(0, 86, 255, 0.23)" stroke-width="1.5"></path><path d="M-42.08 508.46L-63.06 651.11" stroke="rgba(0, 86, 255, 0.23)" stroke-width="1.5"></path><path d="M-63.06 651.11L-63.06 651.11" stroke="rgba(0, 86, 255, 0.23)" stroke-width="1.5"></path><path d="M-63.06 651.11L57.51 680.06" stroke="rgba(0, 86, 255, 0.23)" stroke-width="1.5"></path><path d="M-63.06 651.11L-55.69 364.17" stroke="rgba(0, 86, 255, 0.23)" stroke-width="1.5"></path><path d="M-63.06 651.11L197.46 494.78" stroke="rgba(0, 86, 255, 0.23)" stroke-width="1.5"></path><path d="M-63.06 651.11L249.28 675.68" stroke="rgba(0, 86, 255, 0.23)" stroke-width="1.5"></path><path d="M-63.06 651.11L59.51 345.57" stroke="rgba(0, 86, 255, 0.23)" stroke-width="1.5"></path><path d="M59.51 345.57L59.51 345.57" stroke="rgba(0, 86, 255, 0.23)" stroke-width="1.5"></path><path d="M59.51 345.57L-42.08 508.46" stroke="rgba(0, 86, 255, 0.23)" stroke-width="1.5"></path><path d="M57.51 680.06L57.51 680.06" stroke="rgba(0, 86, 255, 0.23)" stroke-width="1.5"></path><path d="M57.51 680.06L249.28 675.68" stroke="rgba(0, 86, 255, 0.23)" stroke-width="1.5"></path><path d="M57.51 680.06L-42.08 508.46" stroke="rgba(0, 86, 255, 0.23)" stroke-width="1.5"></path><path d="M256.29 396.17L256.29 396.17" stroke="rgba(0, 86, 255, 0.23)" stroke-width="1.5"></path><path d="M256.29 396.17L197.46 494.78" stroke="rgba(0, 86, 255, 0.23)" stroke-width="1.5"></path><path d="M256.29 396.17L388.68 371.47" stroke="rgba(0, 86, 255, 0.23)" stroke-width="1.5"></path><path d="M256.29 396.17L410.87 489.49" stroke="rgba(0, 86, 255, 0.23)" stroke-width="1.5"></path><path d="M197.46 494.78L197.46 494.78" stroke="rgba(0, 86, 255, 0.23)" stroke-width="1.5"></path><path d="M197.46 494.78L249.28 675.68" stroke="rgba(0, 86, 255, 0.23)" stroke-width="1.5"></path><path d="M249.28 675.68L249.28 675.68" stroke="rgba(0, 86, 255, 0.23)" stroke-width="1.5"></path><path d="M249.28 675.68L341.08 659.96" stroke="rgba(0, 86, 255, 0.23)" stroke-width="1.5"></path><path d="M388.68 371.47L388.68 371.47" stroke="rgba(0, 86, 255, 0.23)" stroke-width="1.5"></path><path d="M388.68 371.47L410.87 489.49" stroke="rgba(0, 86, 255, 0.23)" stroke-width="1.5"></path><path d="M410.87 489.49L410.87 489.49" stroke="rgba(0, 86, 255, 0.23)" stroke-width="1.5"></path><path d="M410.87 489.49L558.47 507.99" stroke="rgba(0, 86, 255, 0.23)" stroke-width="1.5"></path><path d="M410.87 489.49L554.32 395.56" stroke="rgba(0, 86, 255, 0.23)" stroke-width="1.5"></path><path d="M341.08 659.96L341.08 659.96" stroke="rgba(0, 86, 255, 0.23)" stroke-width="1.5"></path><path d="M341.08 659.96L410.87 489.49" stroke="rgba(0, 86, 255, 0.23)" stroke-width="1.5"></path><path d="M341.08 659.96L197.46 494.78" stroke="rgba(0, 86, 255, 0.23)" stroke-width="1.5"></path><path d="M554.32 395.56L554.32 395.56" stroke="rgba(0, 86, 255, 0.23)" stroke-width="1.5"></path><path d="M554.32 395.56L558.47 507.99" stroke="rgba(0, 86, 255, 0.23)" stroke-width="1.5"></path><path d="M554.32 395.56L672.22 412.36" stroke="rgba(0, 86, 255, 0.23)" stroke-width="1.5"></path><path d="M554.32 395.56L388.68 371.47" stroke="rgba(0, 86, 255, 0.23)" stroke-width="1.5"></path><path d="M558.47 507.99L558.47 507.99" stroke="rgba(0, 86, 255, 0.23)" stroke-width="1.5"></path><path d="M558.47 507.99L672.22 412.36" stroke="rgba(0, 86, 255, 0.23)" stroke-width="1.5"></path><path d="M656.39 244.32L656.39 244.32" stroke="rgba(0, 86, 255, 0.23)" stroke-width="1.5"></path><path d="M656.39 244.32L672.22 412.36" stroke="rgba(0, 86, 255, 0.23)" stroke-width="1.5"></path><path d="M656.39 244.32L554.32 395.56" stroke="rgba(0, 86, 255, 0.23)" stroke-width="1.5"></path><path d="M672.22 412.36L672.22 412.36" stroke="rgba(0, 86, 255, 0.23)" stroke-width="1.5"></path><path d="M672.22 412.36L710.83 510.83" stroke="rgba(0, 86, 255, 0.23)" stroke-width="1.5"></path><path d="M710.83 510.83L710.83 510.83" stroke="rgba(0, 86, 255, 0.23)" stroke-width="1.5"></path><path d="M710.83 510.83L791.88 548.02" stroke="rgba(0, 86, 255, 0.23)" stroke-width="1.5"></path><path d="M710.83 510.83L558.47 507.99" stroke="rgba(0, 86, 255, 0.23)" stroke-width="1.5"></path><path d="M679.99 689.74L679.99 689.74" stroke="rgba(0, 86, 255, 0.23)" stroke-width="1.5"></path><path d="M679.99 689.74L835.11 687.93" stroke="rgba(0, 86, 255, 0.23)" stroke-width="1.5"></path><path d="M679.99 689.74L791.88 548.02" stroke="rgba(0, 86, 255, 0.23)" stroke-width="1.5"></path><path d="M679.99 689.74L710.83 510.83" stroke="rgba(0, 86, 255, 0.23)" stroke-width="1.5"></path><path d="M679.99 689.74L558.47 507.99" stroke="rgba(0, 86, 255, 0.23)" stroke-width="1.5"></path><path d="M679.99 689.74L939.11 689.73" stroke="rgba(0, 86, 255, 0.23)" stroke-width="1.5"></path><path d="M850.2 248.75L850.2 248.75" stroke="rgba(0, 86, 255, 0.23)" stroke-width="1.5"></path><path d="M850.2 248.75L844.04 373.84" stroke="rgba(0, 86, 255, 0.23)" stroke-width="1.5"></path><path d="M850.2 248.75L1006.34 250.81" stroke="rgba(0, 86, 255, 0.23)" stroke-width="1.5"></path><path d="M850.2 248.75L656.39 244.32" stroke="rgba(0, 86, 255, 0.23)" stroke-width="1.5"></path><path d="M844.04 373.84L844.04 373.84" stroke="rgba(0, 86, 255, 0.23)" stroke-width="1.5"></path><path d="M844.04 373.84L987.02 391.66" stroke="rgba(0, 86, 255, 0.23)" stroke-width="1.5"></path><path d="M844.04 373.84L672.22 412.36" stroke="rgba(0, 86, 255, 0.23)" stroke-width="1.5"></path><path d="M791.88 548.02L791.88 548.02" stroke="rgba(0, 86, 255, 0.23)" stroke-width="1.5"></path><path d="M791.88 548.02L835.11 687.93" stroke="rgba(0, 86, 255, 0.23)" stroke-width="1.5"></path><path d="M791.88 548.02L672.22 412.36" stroke="rgba(0, 86, 255, 0.23)" stroke-width="1.5"></path><path d="M835.11 687.93L835.11 687.93" stroke="rgba(0, 86, 255, 0.23)" stroke-width="1.5"></path><path d="M835.11 687.93L939.11 689.73" stroke="rgba(0, 86, 255, 0.23)" stroke-width="1.5"></path><path d="M835.11 687.93L710.83 510.83" stroke="rgba(0, 86, 255, 0.23)" stroke-width="1.5"></path><path d="M940.97 -87.87L940.97 -87.87" stroke="rgba(0, 86, 255, 0.23)" stroke-width="1.5"></path><path d="M940.97 -87.87L949.77 72.4" stroke="rgba(0, 86, 255, 0.23)" stroke-width="1.5"></path><path d="M940.97 -87.87L1133.83 -90.9" stroke="rgba(0, 86, 255, 0.23)" stroke-width="1.5"></path><path d="M949.77 72.4L949.77 72.4" stroke="rgba(0, 86, 255, 0.23)" stroke-width="1.5"></path><path d="M949.77 72.4L1006.34 250.81" stroke="rgba(0, 86, 255, 0.23)" stroke-width="1.5"></path><path d="M949.77 72.4L850.2 248.75" stroke="rgba(0, 86, 255, 0.23)" stroke-width="1.5"></path><path d="M949.77 72.4L1133.83 -90.9" stroke="rgba(0, 86, 255, 0.23)" stroke-width="1.5"></path><path d="M949.77 72.4L1242.17 42.44" stroke="rgba(0, 86, 255, 0.23)" stroke-width="1.5"></path><path d="M1006.34 250.81L1006.34 250.81" stroke="rgba(0, 86, 255, 0.23)" stroke-width="1.5"></path><path d="M1006.34 250.81L987.02 391.66" stroke="rgba(0, 86, 255, 0.23)" stroke-width="1.5"></path><path d="M987.02 391.66L987.02 391.66" stroke="rgba(0, 86, 255, 0.23)" stroke-width="1.5"></path><path d="M987.02 391.66L1095.26 517.14" stroke="rgba(0, 86, 255, 0.23)" stroke-width="1.5"></path><path d="M939.11 689.73L939.11 689.73" stroke="rgba(0, 86, 255, 0.23)" stroke-width="1.5"></path><path d="M939.11 689.73L1109.08 638.33" stroke="rgba(0, 86, 255, 0.23)" stroke-width="1.5"></path><path d="M939.11 689.73L791.88 548.02" stroke="rgba(0, 86, 255, 0.23)" stroke-width="1.5"></path><path d="M939.11 689.73L1095.26 517.14" stroke="rgba(0, 86, 255, 0.23)" stroke-width="1.5"></path><path d="M939.11 689.73L710.83 510.83" stroke="rgba(0, 86, 255, 0.23)" stroke-width="1.5"></path><path d="M1133.83 -90.9L1133.83 -90.9" stroke="rgba(0, 86, 255, 0.23)" stroke-width="1.5"></path><path d="M1133.83 -90.9L1285.49 -90.71" stroke="rgba(0, 86, 255, 0.23)" stroke-width="1.5"></path><path d="M1133.83 -90.9L1242.17 42.44" stroke="rgba(0, 86, 255, 0.23)" stroke-width="1.5"></path><path d="M1154.47 386.56L1154.47 386.56" stroke="rgba(0, 86, 255, 0.23)" stroke-width="1.5"></path><path d="M1154.47 386.56L1295.11 405.09" stroke="rgba(0, 86, 255, 0.23)" stroke-width="1.5"></path><path d="M1154.47 386.56L1095.26 517.14" stroke="rgba(0, 86, 255, 0.23)" stroke-width="1.5"></path><path d="M1154.47 386.56L987.02 391.66" stroke="rgba(0, 86, 255, 0.23)" stroke-width="1.5"></path><path d="M1095.26 517.14L1095.26 517.14" stroke="rgba(0, 86, 255, 0.23)" stroke-width="1.5"></path><path d="M1095.26 517.14L1109.08 638.33" stroke="rgba(0, 86, 255, 0.23)" stroke-width="1.5"></path><path d="M1095.26 517.14L1300.99 494.07" stroke="rgba(0, 86, 255, 0.23)" stroke-width="1.5"></path><path d="M1109.08 638.33L1109.08 638.33" stroke="rgba(0, 86, 255, 0.23)" stroke-width="1.5"></path><path d="M1109.08 638.33L1276.54 647.78" stroke="rgba(0, 86, 255, 0.23)" stroke-width="1.5"></path><path d="M1285.49 -90.71L1285.49 -90.71" stroke="rgba(0, 86, 255, 0.23)" stroke-width="1.5"></path><path d="M1285.49 -90.71L1390.53 -70.01" stroke="rgba(0, 86, 255, 0.23)" stroke-width="1.5"></path><path d="M1285.49 -90.71L1242.17 42.44" stroke="rgba(0, 86, 255, 0.23)" stroke-width="1.5"></path><path d="M1242.17 42.44L1242.17 42.44" stroke="rgba(0, 86, 255, 0.23)" stroke-width="1.5"></path><path d="M1242.17 42.44L1410.97 57.81" stroke="rgba(0, 86, 255, 0.23)" stroke-width="1.5"></path><path d="M1253.28 249.38L1253.28 249.38" stroke="rgba(0, 86, 255, 0.23)" stroke-width="1.5"></path><path d="M1253.28 249.38L1295.11 405.09" stroke="rgba(0, 86, 255, 0.23)" stroke-width="1.5"></path><path d="M1253.28 249.38L1154.47 386.56" stroke="rgba(0, 86, 255, 0.23)" stroke-width="1.5"></path><path d="M1253.28 249.38L1434.11 215.59" stroke="rgba(0, 86, 255, 0.23)" stroke-width="1.5"></path><path d="M1253.28 249.38L1393.9 393.21" stroke="rgba(0, 86, 255, 0.23)" stroke-width="1.5"></path><path d="M1253.28 249.38L1242.17 42.44" stroke="rgba(0, 86, 255, 0.23)" stroke-width="1.5"></path><path d="M1295.11 405.09L1295.11 405.09" stroke="rgba(0, 86, 255, 0.23)" stroke-width="1.5"></path><path d="M1295.11 405.09L1300.99 494.07" stroke="rgba(0, 86, 255, 0.23)" stroke-width="1.5"></path><path d="M1295.11 405.09L1393.9 393.21" stroke="rgba(0, 86, 255, 0.23)" stroke-width="1.5"></path><path d="M1300.99 494.07L1300.99 494.07" stroke="rgba(0, 86, 255, 0.23)" stroke-width="1.5"></path><path d="M1300.99 494.07L1424.22 525.99" stroke="rgba(0, 86, 255, 0.23)" stroke-width="1.5"></path><path d="M1300.99 494.07L1393.9 393.21" stroke="rgba(0, 86, 255, 0.23)" stroke-width="1.5"></path><path d="M1300.99 494.07L1276.54 647.78" stroke="rgba(0, 86, 255, 0.23)" stroke-width="1.5"></path><path d="M1276.54 647.78L1276.54 647.78" stroke="rgba(0, 86, 255, 0.23)" stroke-width="1.5"></path><path d="M1276.54 647.78L1393.16 658.1" stroke="rgba(0, 86, 255, 0.23)" stroke-width="1.5"></path><path d="M1390.53 -70.01L1390.53 -70.01" stroke="rgba(0, 86, 255, 0.23)" stroke-width="1.5"></path><path d="M1390.53 -70.01L1410.97 57.81" stroke="rgba(0, 86, 255, 0.23)" stroke-width="1.5"></path><path d="M1390.53 -70.01L1563.87 -41.47" stroke="rgba(0, 86, 255, 0.23)" stroke-width="1.5"></path><path d="M1390.53 -70.01L1242.17 42.44" stroke="rgba(0, 86, 255, 0.23)" stroke-width="1.5"></path><path d="M1410.97 57.81L1410.97 57.81" stroke="rgba(0, 86, 255, 0.23)" stroke-width="1.5"></path><path d="M1410.97 57.81L1434.11 215.59" stroke="rgba(0, 86, 255, 0.23)" stroke-width="1.5"></path><path d="M1434.11 215.59L1434.11 215.59" stroke="rgba(0, 86, 255, 0.23)" stroke-width="1.5"></path><path d="M1434.11 215.59L1393.9 393.21" stroke="rgba(0, 86, 255, 0.23)" stroke-width="1.5"></path><path d="M1393.9 393.21L1393.9 393.21" stroke="rgba(0, 86, 255, 0.23)" stroke-width="1.5"></path><path d="M1393.9 393.21L1424.22 525.99" stroke="rgba(0, 86, 255, 0.23)" stroke-width="1.5"></path><path d="M1393.9 393.21L1550.94 387.14" stroke="rgba(0, 86, 255, 0.23)" stroke-width="1.5"></path><path d="M1424.22 525.99L1424.22 525.99" stroke="rgba(0, 86, 255, 0.23)" stroke-width="1.5"></path><path d="M1424.22 525.99L1393.16 658.1" stroke="rgba(0, 86, 255, 0.23)" stroke-width="1.5"></path><path d="M1393.16 658.1L1393.16 658.1" stroke="rgba(0, 86, 255, 0.23)" stroke-width="1.5"></path><path d="M1393.16 658.1L1300.99 494.07" stroke="rgba(0, 86, 255, 0.23)" stroke-width="1.5"></path><path d="M1393.16 658.1L1584.79 679.79" stroke="rgba(0, 86, 255, 0.23)" stroke-width="1.5"></path><path d="M1393.16 658.1L1559.12 544.7" stroke="rgba(0, 86, 255, 0.23)" stroke-width="1.5"></path><path d="M1393.16 658.1L1393.9 393.21" stroke="rgba(0, 86, 255, 0.23)" stroke-width="1.5"></path><path d="M1563.87 -41.47L1563.87 -41.47" stroke="rgba(0, 86, 255, 0.23)" stroke-width="1.5"></path><path d="M1563.87 -41.47L1608.17 38.73" stroke="rgba(0, 86, 255, 0.23)" stroke-width="1.5"></path><path d="M1563.87 -41.47L1410.97 57.81" stroke="rgba(0, 86, 255, 0.23)" stroke-width="1.5"></path><path d="M1563.87 -41.47L1285.49 -90.71" stroke="rgba(0, 86, 255, 0.23)" stroke-width="1.5"></path><path d="M1608.17 38.73L1608.17 38.73" stroke="rgba(0, 86, 255, 0.23)" stroke-width="1.5"></path><path d="M1608.17 38.73L1410.97 57.81" stroke="rgba(0, 86, 255, 0.23)" stroke-width="1.5"></path><path d="M1608.17 38.73L1390.53 -70.01" stroke="rgba(0, 86, 255, 0.23)" stroke-width="1.5"></path><path d="M1608.17 38.73L1434.11 215.59" stroke="rgba(0, 86, 255, 0.23)" stroke-width="1.5"></path><path d="M1550.94 387.14L1550.94 387.14" stroke="rgba(0, 86, 255, 0.23)" stroke-width="1.5"></path><path d="M1550.94 387.14L1559.12 544.7" stroke="rgba(0, 86, 255, 0.23)" stroke-width="1.5"></path><path d="M1550.94 387.14L1424.22 525.99" stroke="rgba(0, 86, 255, 0.23)" stroke-width="1.5"></path><path d="M1550.94 387.14L1434.11 215.59" stroke="rgba(0, 86, 255, 0.23)" stroke-width="1.5"></path><path d="M1559.12 544.7L1559.12 544.7" stroke="rgba(0, 86, 255, 0.23)" stroke-width="1.5"></path><path d="M1559.12 544.7L1424.22 525.99" stroke="rgba(0, 86, 255, 0.23)" stroke-width="1.5"></path><path d="M1559.12 544.7L1584.79 679.79" stroke="rgba(0, 86, 255, 0.23)" stroke-width="1.5"></path><path d="M1584.79 679.79L1584.79 679.79" stroke="rgba(0, 86, 255, 0.23)" stroke-width="1.5"></path><path d="M1584.79 679.79L1424.22 525.99" stroke="rgba(0, 86, 255, 0.23)" stroke-width="1.5"></path><path d="M1584.79 679.79L1550.94 387.14" stroke="rgba(0, 86, 255, 0.23)" stroke-width="1.5"></path><path d="M1584.79 679.79L1276.54 647.78" stroke="rgba(0, 86, 255, 0.23)" stroke-width="1.5"></path><circle r="5" cx="-55.69" cy="364.17" fill="rgba(0, 86, 255, 0.23)"></circle><circle r="5" cx="-42.08" cy="508.46" fill="rgba(0, 86, 255, 0.23)"></circle><circle r="5" cx="-63.06" cy="651.11" fill="rgba(0, 86, 255, 0.23)"></circle><circle r="5" cx="59.51" cy="345.57" fill="rgba(0, 86, 255, 0.23)"></circle><circle r="5" cx="57.51" cy="680.06" fill="rgba(0, 86, 255, 0.23)"></circle><circle r="5" cx="256.29" cy="396.17" fill="rgba(0, 86, 255, 0.23)"></circle><circle r="5" cx="197.46" cy="494.78" fill="rgba(0, 86, 255, 0.23)"></circle><circle r="5" cx="249.28" cy="675.68" fill="rgba(0, 86, 255, 0.23)"></circle><circle r="5" cx="388.68" cy="371.47" fill="rgba(0, 86, 255, 0.23)"></circle><circle r="5" cx="410.87" cy="489.49" fill="rgba(0, 86, 255, 0.23)"></circle><circle r="5" cx="341.08" cy="659.96" fill="rgba(0, 86, 255, 0.23)"></circle><circle r="5" cx="554.32" cy="395.56" fill="rgba(0, 86, 255, 0.23)"></circle><circle r="5" cx="558.47" cy="507.99" fill="rgba(0, 86, 255, 0.23)"></circle><circle r="5" cx="656.39" cy="244.32" fill="rgba(0, 86, 255, 0.23)"></circle><circle r="5" cx="672.22" cy="412.36" fill="rgba(0, 86, 255, 0.23)"></circle><circle r="5" cx="710.83" cy="510.83" fill="rgba(0, 86, 255, 0.23)"></circle><circle r="5" cx="679.99" cy="689.74" fill="rgba(0, 86, 255, 0.23)"></circle><circle r="5" cx="850.2" cy="248.75" fill="rgba(0, 86, 255, 0.23)"></circle><circle r="5" cx="844.04" cy="373.84" fill="rgba(0, 86, 255, 0.23)"></circle><circle r="5" cx="791.88" cy="548.02" fill="rgba(0, 86, 255, 0.23)"></circle><circle r="5" cx="835.11" cy="687.93" fill="rgba(0, 86, 255, 0.23)"></circle><circle r="5" cx="940.97" cy="-87.87" fill="rgba(0, 86, 255, 0.23)"></circle><circle r="5" cx="949.77" cy="72.4" fill="rgba(0, 86, 255, 0.23)"></circle><circle r="5" cx="1006.34" cy="250.81" fill="rgba(0, 86, 255, 0.23)"></circle><circle r="5" cx="987.02" cy="391.66" fill="rgba(0, 86, 255, 0.23)"></circle><circle r="5" cx="939.11" cy="689.73" fill="rgba(0, 86, 255, 0.23)"></circle><circle r="5" cx="1133.83" cy="-90.9" fill="rgba(0, 86, 255, 0.23)"></circle><circle r="5" cx="1154.47" cy="386.56" fill="rgba(0, 86, 255, 0.23)"></circle><circle r="5" cx="1095.26" cy="517.14" fill="rgba(0, 86, 255, 0.23)"></circle><circle r="5" cx="1109.08" cy="638.33" fill="rgba(0, 86, 255, 0.23)"></circle><circle r="5" cx="1285.49" cy="-90.71" fill="rgba(0, 86, 255, 0.23)"></circle><circle r="5" cx="1242.17" cy="42.44" fill="rgba(0, 86, 255, 0.23)"></circle><circle r="5" cx="1253.28" cy="249.38" fill="rgba(0, 86, 255, 0.23)"></circle><circle r="5" cx="1295.11" cy="405.09" fill="rgba(0, 86, 255, 0.23)"></circle><circle r="5" cx="1300.99" cy="494.07" fill="rgba(0, 86, 255, 0.23)"></circle><circle r="5" cx="1276.54" cy="647.78" fill="rgba(0, 86, 255, 0.23)"></circle><circle r="5" cx="1390.53" cy="-70.01" fill="rgba(0, 86, 255, 0.23)"></circle><circle r="5" cx="1410.97" cy="57.81" fill="rgba(0, 86, 255, 0.23)"></circle><circle r="5" cx="1434.11" cy="215.59" fill="rgba(0, 86, 255, 0.23)"></circle><circle r="5" cx="1393.9" cy="393.21" fill="rgba(0, 86, 255, 0.23)"></circle><circle r="5" cx="1424.22" cy="525.99" fill="rgba(0, 86, 255, 0.23)"></circle><circle r="5" cx="1393.16" cy="658.1" fill="rgba(0, 86, 255, 0.23)"></circle><circle r="5" cx="1563.87" cy="-41.47" fill="rgba(0, 86, 255, 0.23)"></circle><circle r="5" cx="1608.17" cy="38.73" fill="rgba(0, 86, 255, 0.23)"></circle><circle r="5" cx="1550.94" cy="387.14" fill="rgba(0, 86, 255, 0.23)"></circle><circle r="5" cx="1559.12" cy="544.7" fill="rgba(0, 86, 255, 0.23)"></circle><circle r="5" cx="1584.79" cy="679.79" fill="rgba(0, 86, 255, 0.23)"></circle><path d="M38.54 500.64L38.54 500.64" stroke="hsla(246.39999999999998, 87.9%, 54.5%, 0.31)" stroke-width="1.5"></path><path d="M38.54 500.64L-52.48 560.05" stroke="hsla(246.39999999999998, 87.9%, 54.5%, 0.31)" stroke-width="1.5"></path><path d="M38.54 500.64L211.67 499.28" stroke="hsla(246.39999999999998, 87.9%, 54.5%, 0.31)" stroke-width="1.5"></path><path d="M38.54 500.64L-82.91 654.06" stroke="hsla(246.39999999999998, 87.9%, 54.5%, 0.31)" stroke-width="1.5"></path><path d="M1249.71 -75.9L1249.71 -75.9" stroke="hsla(246.39999999999998, 87.9%, 54.5%, 0.31)" stroke-width="1.5"></path><path d="M1249.71 -75.9L1410.4 -51.43" stroke="hsla(246.39999999999998, 87.9%, 54.5%, 0.31)" stroke-width="1.5"></path><path d="M1249.71 -75.9L1309.28 99.14" stroke="hsla(246.39999999999998, 87.9%, 54.5%, 0.31)" stroke-width="1.5"></path><path d="M1403.9 389.37L1403.9 389.37" stroke="hsla(246.39999999999998, 87.9%, 54.5%, 0.31)" stroke-width="1.5"></path><path d="M1403.9 389.37L1253.95 390.34" stroke="hsla(246.39999999999998, 87.9%, 54.5%, 0.31)" stroke-width="1.5"></path><path d="M1403.9 389.37L1557.67 355.77" stroke="hsla(246.39999999999998, 87.9%, 54.5%, 0.31)" stroke-width="1.5"></path><path d="M1403.9 389.37L1397.36 549.32" stroke="hsla(246.39999999999998, 87.9%, 54.5%, 0.31)" stroke-width="1.5"></path><path d="M1403.9 389.37L1389.7 214.07" stroke="hsla(246.39999999999998, 87.9%, 54.5%, 0.31)" stroke-width="1.5"></path><path d="M1551.97 519.52L1551.97 519.52" stroke="hsla(246.39999999999998, 87.9%, 54.5%, 0.31)" stroke-width="1.5"></path><path d="M1551.97 519.52L1397.36 549.32" stroke="hsla(246.39999999999998, 87.9%, 54.5%, 0.31)" stroke-width="1.5"></path><path d="M1551.97 519.52L1557.67 355.77" stroke="hsla(246.39999999999998, 87.9%, 54.5%, 0.31)" stroke-width="1.5"></path><path d="M1551.97 519.52L1609.03 684.06" stroke="hsla(246.39999999999998, 87.9%, 54.5%, 0.31)" stroke-width="1.5"></path><path d="M1551.97 519.52L1403.9 389.37" stroke="hsla(246.39999999999998, 87.9%, 54.5%, 0.31)" stroke-width="1.5"></path><path d="M-52.48 560.05L-52.48 560.05" stroke="hsla(246.39999999999998, 87.9%, 54.5%, 0.31)" stroke-width="1.5"></path><path d="M-52.48 560.05L-82.91 654.06" stroke="hsla(246.39999999999998, 87.9%, 54.5%, 0.31)" stroke-width="1.5"></path><path d="M-52.48 560.05L61.37 708.89" stroke="hsla(246.39999999999998, 87.9%, 54.5%, 0.31)" stroke-width="1.5"></path><path d="M-52.48 560.05L211.67 499.28" stroke="hsla(246.39999999999998, 87.9%, 54.5%, 0.31)" stroke-width="1.5"></path><path d="M-52.48 560.05L259.02 675.13" stroke="hsla(246.39999999999998, 87.9%, 54.5%, 0.31)" stroke-width="1.5"></path><path d="M-52.48 560.05L371.18 491.63" stroke="hsla(246.39999999999998, 87.9%, 54.5%, 0.31)" stroke-width="1.5"></path><path d="M-82.91 654.06L-82.91 654.06" stroke="hsla(246.39999999999998, 87.9%, 54.5%, 0.31)" stroke-width="1.5"></path><path d="M-82.91 654.06L61.37 708.89" stroke="hsla(246.39999999999998, 87.9%, 54.5%, 0.31)" stroke-width="1.5"></path><path d="M-82.91 654.06L211.67 499.28" stroke="hsla(246.39999999999998, 87.9%, 54.5%, 0.31)" stroke-width="1.5"></path><path d="M61.37 708.89L61.37 708.89" stroke="hsla(246.39999999999998, 87.9%, 54.5%, 0.31)" stroke-width="1.5"></path><path d="M211.67 499.28L211.67 499.28" stroke="hsla(246.39999999999998, 87.9%, 54.5%, 0.31)" stroke-width="1.5"></path><path d="M211.67 499.28L371.18 491.63" stroke="hsla(246.39999999999998, 87.9%, 54.5%, 0.31)" stroke-width="1.5"></path><path d="M211.67 499.28L259.02 675.13" stroke="hsla(246.39999999999998, 87.9%, 54.5%, 0.31)" stroke-width="1.5"></path><path d="M211.67 499.28L373.28 678.18" stroke="hsla(246.39999999999998, 87.9%, 54.5%, 0.31)" stroke-width="1.5"></path><path d="M211.67 499.28L61.37 708.89" stroke="hsla(246.39999999999998, 87.9%, 54.5%, 0.31)" stroke-width="1.5"></path><path d="M259.02 675.13L259.02 675.13" stroke="hsla(246.39999999999998, 87.9%, 54.5%, 0.31)" stroke-width="1.5"></path><path d="M259.02 675.13L373.28 678.18" stroke="hsla(246.39999999999998, 87.9%, 54.5%, 0.31)" stroke-width="1.5"></path><path d="M259.02 675.13L61.37 708.89" stroke="hsla(246.39999999999998, 87.9%, 54.5%, 0.31)" stroke-width="1.5"></path><path d="M259.02 675.13L371.18 491.63" stroke="hsla(246.39999999999998, 87.9%, 54.5%, 0.31)" stroke-width="1.5"></path><path d="M259.02 675.13L530.62 690.22" stroke="hsla(246.39999999999998, 87.9%, 54.5%, 0.31)" stroke-width="1.5"></path><path d="M259.02 675.13L495.08 531.5" stroke="hsla(246.39999999999998, 87.9%, 54.5%, 0.31)" stroke-width="1.5"></path><path d="M371.18 491.63L371.18 491.63" stroke="hsla(246.39999999999998, 87.9%, 54.5%, 0.31)" stroke-width="1.5"></path><path d="M371.18 491.63L495.08 531.5" stroke="hsla(246.39999999999998, 87.9%, 54.5%, 0.31)" stroke-width="1.5"></path><path d="M371.18 491.63L373.28 678.18" stroke="hsla(246.39999999999998, 87.9%, 54.5%, 0.31)" stroke-width="1.5"></path><path d="M371.18 491.63L530.62 690.22" stroke="hsla(246.39999999999998, 87.9%, 54.5%, 0.31)" stroke-width="1.5"></path><path d="M371.18 491.63L673.3 490.43" stroke="hsla(246.39999999999998, 87.9%, 54.5%, 0.31)" stroke-width="1.5"></path><path d="M373.28 678.18L373.28 678.18" stroke="hsla(246.39999999999998, 87.9%, 54.5%, 0.31)" stroke-width="1.5"></path><path d="M373.28 678.18L530.62 690.22" stroke="hsla(246.39999999999998, 87.9%, 54.5%, 0.31)" stroke-width="1.5"></path><path d="M373.28 678.18L495.08 531.5" stroke="hsla(246.39999999999998, 87.9%, 54.5%, 0.31)" stroke-width="1.5"></path><path d="M495.08 531.5L495.08 531.5" stroke="hsla(246.39999999999998, 87.9%, 54.5%, 0.31)" stroke-width="1.5"></path><path d="M495.08 531.5L530.62 690.22" stroke="hsla(246.39999999999998, 87.9%, 54.5%, 0.31)" stroke-width="1.5"></path><path d="M530.62 690.22L530.62 690.22" stroke="hsla(246.39999999999998, 87.9%, 54.5%, 0.31)" stroke-width="1.5"></path><path d="M530.62 690.22L666.62 682.01" stroke="hsla(246.39999999999998, 87.9%, 54.5%, 0.31)" stroke-width="1.5"></path><path d="M530.62 690.22L673.3 490.43" stroke="hsla(246.39999999999998, 87.9%, 54.5%, 0.31)" stroke-width="1.5"></path><path d="M673.3 490.43L673.3 490.43" stroke="hsla(246.39999999999998, 87.9%, 54.5%, 0.31)" stroke-width="1.5"></path><path d="M673.3 490.43L820.76 505.54" stroke="hsla(246.39999999999998, 87.9%, 54.5%, 0.31)" stroke-width="1.5"></path><path d="M673.3 490.43L495.08 531.5" stroke="hsla(246.39999999999998, 87.9%, 54.5%, 0.31)" stroke-width="1.5"></path><path d="M673.3 490.43L666.62 682.01" stroke="hsla(246.39999999999998, 87.9%, 54.5%, 0.31)" stroke-width="1.5"></path><path d="M673.3 490.43L856.98 405.93" stroke="hsla(246.39999999999998, 87.9%, 54.5%, 0.31)" stroke-width="1.5"></path><path d="M666.62 682.01L666.62 682.01" stroke="hsla(246.39999999999998, 87.9%, 54.5%, 0.31)" stroke-width="1.5"></path><path d="M666.62 682.01L822.57 707.99" stroke="hsla(246.39999999999998, 87.9%, 54.5%, 0.31)" stroke-width="1.5"></path><path d="M856.98 405.93L856.98 405.93" stroke="hsla(246.39999999999998, 87.9%, 54.5%, 0.31)" stroke-width="1.5"></path><path d="M856.98 405.93L820.76 505.54" stroke="hsla(246.39999999999998, 87.9%, 54.5%, 0.31)" stroke-width="1.5"></path><path d="M820.76 505.54L820.76 505.54" stroke="hsla(246.39999999999998, 87.9%, 54.5%, 0.31)" stroke-width="1.5"></path><path d="M820.76 505.54L998.05 495.88" stroke="hsla(246.39999999999998, 87.9%, 54.5%, 0.31)" stroke-width="1.5"></path><path d="M822.57 707.99L822.57 707.99" stroke="hsla(246.39999999999998, 87.9%, 54.5%, 0.31)" stroke-width="1.5"></path><path d="M822.57 707.99L962.27 674.91" stroke="hsla(246.39999999999998, 87.9%, 54.5%, 0.31)" stroke-width="1.5"></path><path d="M822.57 707.99L820.76 505.54" stroke="hsla(246.39999999999998, 87.9%, 54.5%, 0.31)" stroke-width="1.5"></path><path d="M822.57 707.99L673.3 490.43" stroke="hsla(246.39999999999998, 87.9%, 54.5%, 0.31)" stroke-width="1.5"></path><path d="M822.57 707.99L998.05 495.88" stroke="hsla(246.39999999999998, 87.9%, 54.5%, 0.31)" stroke-width="1.5"></path><path d="M822.57 707.99L530.62 690.22" stroke="hsla(246.39999999999998, 87.9%, 54.5%, 0.31)" stroke-width="1.5"></path><path d="M966 368.34L966 368.34" stroke="hsla(246.39999999999998, 87.9%, 54.5%, 0.31)" stroke-width="1.5"></path><path d="M966 368.34L856.98 405.93" stroke="hsla(246.39999999999998, 87.9%, 54.5%, 0.31)" stroke-width="1.5"></path><path d="M966 368.34L998.05 495.88" stroke="hsla(246.39999999999998, 87.9%, 54.5%, 0.31)" stroke-width="1.5"></path><path d="M966 368.34L1143.85 371.88" stroke="hsla(246.39999999999998, 87.9%, 54.5%, 0.31)" stroke-width="1.5"></path><path d="M966 368.34L820.76 505.54" stroke="hsla(246.39999999999998, 87.9%, 54.5%, 0.31)" stroke-width="1.5"></path><path d="M966 368.34L1123.14 505.47" stroke="hsla(246.39999999999998, 87.9%, 54.5%, 0.31)" stroke-width="1.5"></path><path d="M998.05 495.88L998.05 495.88" stroke="hsla(246.39999999999998, 87.9%, 54.5%, 0.31)" stroke-width="1.5"></path><path d="M998.05 495.88L1123.14 505.47" stroke="hsla(246.39999999999998, 87.9%, 54.5%, 0.31)" stroke-width="1.5"></path><path d="M962.27 674.91L962.27 674.91" stroke="hsla(246.39999999999998, 87.9%, 54.5%, 0.31)" stroke-width="1.5"></path><path d="M962.27 674.91L998.05 495.88" stroke="hsla(246.39999999999998, 87.9%, 54.5%, 0.31)" stroke-width="1.5"></path><path d="M962.27 674.91L1160.7 676.9" stroke="hsla(246.39999999999998, 87.9%, 54.5%, 0.31)" stroke-width="1.5"></path><path d="M962.27 674.91L820.76 505.54" stroke="hsla(246.39999999999998, 87.9%, 54.5%, 0.31)" stroke-width="1.5"></path><path d="M962.27 674.91L1123.14 505.47" stroke="hsla(246.39999999999998, 87.9%, 54.5%, 0.31)" stroke-width="1.5"></path><path d="M962.27 674.91L856.98 405.93" stroke="hsla(246.39999999999998, 87.9%, 54.5%, 0.31)" stroke-width="1.5"></path><path d="M1160.69 257.91L1160.69 257.91" stroke="hsla(246.39999999999998, 87.9%, 54.5%, 0.31)" stroke-width="1.5"></path><path d="M1160.69 257.91L1143.85 371.88" stroke="hsla(246.39999999999998, 87.9%, 54.5%, 0.31)" stroke-width="1.5"></path><path d="M1160.69 257.91L1304.47 244.22" stroke="hsla(246.39999999999998, 87.9%, 54.5%, 0.31)" stroke-width="1.5"></path><path d="M1160.69 257.91L1253.95 390.34" stroke="hsla(246.39999999999998, 87.9%, 54.5%, 0.31)" stroke-width="1.5"></path><path d="M1143.85 371.88L1143.85 371.88" stroke="hsla(246.39999999999998, 87.9%, 54.5%, 0.31)" stroke-width="1.5"></path><path d="M1143.85 371.88L1253.95 390.34" stroke="hsla(246.39999999999998, 87.9%, 54.5%, 0.31)" stroke-width="1.5"></path><path d="M1143.85 371.88L1123.14 505.47" stroke="hsla(246.39999999999998, 87.9%, 54.5%, 0.31)" stroke-width="1.5"></path><path d="M1143.85 371.88L998.05 495.88" stroke="hsla(246.39999999999998, 87.9%, 54.5%, 0.31)" stroke-width="1.5"></path><path d="M1143.85 371.88L1255.71 538.9" stroke="hsla(246.39999999999998, 87.9%, 54.5%, 0.31)" stroke-width="1.5"></path><path d="M1123.14 505.47L1123.14 505.47" stroke="hsla(246.39999999999998, 87.9%, 54.5%, 0.31)" stroke-width="1.5"></path><path d="M1123.14 505.47L1255.71 538.9" stroke="hsla(246.39999999999998, 87.9%, 54.5%, 0.31)" stroke-width="1.5"></path><path d="M1123.14 505.47L1253.95 390.34" stroke="hsla(246.39999999999998, 87.9%, 54.5%, 0.31)" stroke-width="1.5"></path><path d="M1160.7 676.9L1160.7 676.9" stroke="hsla(246.39999999999998, 87.9%, 54.5%, 0.31)" stroke-width="1.5"></path><path d="M1160.7 676.9L1263.75 684.51" stroke="hsla(246.39999999999998, 87.9%, 54.5%, 0.31)" stroke-width="1.5"></path><path d="M1160.7 676.9L1255.71 538.9" stroke="hsla(246.39999999999998, 87.9%, 54.5%, 0.31)" stroke-width="1.5"></path><path d="M1160.7 676.9L1123.14 505.47" stroke="hsla(246.39999999999998, 87.9%, 54.5%, 0.31)" stroke-width="1.5"></path><path d="M1309.28 99.14L1309.28 99.14" stroke="hsla(246.39999999999998, 87.9%, 54.5%, 0.31)" stroke-width="1.5"></path><path d="M1309.28 99.14L1387.61 51.16" stroke="hsla(246.39999999999998, 87.9%, 54.5%, 0.31)" stroke-width="1.5"></path><path d="M1309.28 99.14L1389.7 214.07" stroke="hsla(246.39999999999998, 87.9%, 54.5%, 0.31)" stroke-width="1.5"></path><path d="M1309.28 99.14L1304.47 244.22" stroke="hsla(246.39999999999998, 87.9%, 54.5%, 0.31)" stroke-width="1.5"></path><path d="M1309.28 99.14L1410.4 -51.43" stroke="hsla(246.39999999999998, 87.9%, 54.5%, 0.31)" stroke-width="1.5"></path><path d="M1309.28 99.14L1160.69 257.91" stroke="hsla(246.39999999999998, 87.9%, 54.5%, 0.31)" stroke-width="1.5"></path><path d="M1304.47 244.22L1304.47 244.22" stroke="hsla(246.39999999999998, 87.9%, 54.5%, 0.31)" stroke-width="1.5"></path><path d="M1304.47 244.22L1389.7 214.07" stroke="hsla(246.39999999999998, 87.9%, 54.5%, 0.31)" stroke-width="1.5"></path><path d="M1304.47 244.22L1253.95 390.34" stroke="hsla(246.39999999999998, 87.9%, 54.5%, 0.31)" stroke-width="1.5"></path><path d="M1304.47 244.22L1403.9 389.37" stroke="hsla(246.39999999999998, 87.9%, 54.5%, 0.31)" stroke-width="1.5"></path><path d="M1253.95 390.34L1253.95 390.34" stroke="hsla(246.39999999999998, 87.9%, 54.5%, 0.31)" stroke-width="1.5"></path><path d="M1253.95 390.34L1255.71 538.9" stroke="hsla(246.39999999999998, 87.9%, 54.5%, 0.31)" stroke-width="1.5"></path><path d="M1255.71 538.9L1255.71 538.9" stroke="hsla(246.39999999999998, 87.9%, 54.5%, 0.31)" stroke-width="1.5"></path><path d="M1255.71 538.9L1397.36 549.32" stroke="hsla(246.39999999999998, 87.9%, 54.5%, 0.31)" stroke-width="1.5"></path><path d="M1255.71 538.9L1263.75 684.51" stroke="hsla(246.39999999999998, 87.9%, 54.5%, 0.31)" stroke-width="1.5"></path><path d="M1263.75 684.51L1263.75 684.51" stroke="hsla(246.39999999999998, 87.9%, 54.5%, 0.31)" stroke-width="1.5"></path><path d="M1263.75 684.51L1398.19 693.99" stroke="hsla(246.39999999999998, 87.9%, 54.5%, 0.31)" stroke-width="1.5"></path><path d="M1410.4 -51.43L1410.4 -51.43" stroke="hsla(246.39999999999998, 87.9%, 54.5%, 0.31)" stroke-width="1.5"></path><path d="M1410.4 -51.43L1387.61 51.16" stroke="hsla(246.39999999999998, 87.9%, 54.5%, 0.31)" stroke-width="1.5"></path><path d="M1410.4 -51.43L1563.1 -89.21" stroke="hsla(246.39999999999998, 87.9%, 54.5%, 0.31)" stroke-width="1.5"></path><path d="M1410.4 -51.43L1562.47 38.67" stroke="hsla(246.39999999999998, 87.9%, 54.5%, 0.31)" stroke-width="1.5"></path><path d="M1410.4 -51.43L1389.7 214.07" stroke="hsla(246.39999999999998, 87.9%, 54.5%, 0.31)" stroke-width="1.5"></path><path d="M1387.61 51.16L1387.61 51.16" stroke="hsla(246.39999999999998, 87.9%, 54.5%, 0.31)" stroke-width="1.5"></path><path d="M1389.7 214.07L1389.7 214.07" stroke="hsla(246.39999999999998, 87.9%, 54.5%, 0.31)" stroke-width="1.5"></path><path d="M1397.36 549.32L1397.36 549.32" stroke="hsla(246.39999999999998, 87.9%, 54.5%, 0.31)" stroke-width="1.5"></path><path d="M1397.36 549.32L1398.19 693.99" stroke="hsla(246.39999999999998, 87.9%, 54.5%, 0.31)" stroke-width="1.5"></path><path d="M1398.19 693.99L1398.19 693.99" stroke="hsla(246.39999999999998, 87.9%, 54.5%, 0.31)" stroke-width="1.5"></path><path d="M1398.19 693.99L1255.71 538.9" stroke="hsla(246.39999999999998, 87.9%, 54.5%, 0.31)" stroke-width="1.5"></path><path d="M1398.19 693.99L1609.03 684.06" stroke="hsla(246.39999999999998, 87.9%, 54.5%, 0.31)" stroke-width="1.5"></path><path d="M1398.19 693.99L1551.97 519.52" stroke="hsla(246.39999999999998, 87.9%, 54.5%, 0.31)" stroke-width="1.5"></path><path d="M1563.1 -89.21L1563.1 -89.21" stroke="hsla(246.39999999999998, 87.9%, 54.5%, 0.31)" stroke-width="1.5"></path><path d="M1563.1 -89.21L1562.47 38.67" stroke="hsla(246.39999999999998, 87.9%, 54.5%, 0.31)" stroke-width="1.5"></path><path d="M1563.1 -89.21L1387.61 51.16" stroke="hsla(246.39999999999998, 87.9%, 54.5%, 0.31)" stroke-width="1.5"></path><path d="M1563.1 -89.21L1249.71 -75.9" stroke="hsla(246.39999999999998, 87.9%, 54.5%, 0.31)" stroke-width="1.5"></path><path d="M1563.1 -89.21L1309.28 99.14" stroke="hsla(246.39999999999998, 87.9%, 54.5%, 0.31)" stroke-width="1.5"></path><path d="M1563.1 -89.21L1594.08 254.09" stroke="hsla(246.39999999999998, 87.9%, 54.5%, 0.31)" stroke-width="1.5"></path><path d="M1562.47 38.67L1562.47 38.67" stroke="hsla(246.39999999999998, 87.9%, 54.5%, 0.31)" stroke-width="1.5"></path><path d="M1562.47 38.67L1387.61 51.16" stroke="hsla(246.39999999999998, 87.9%, 54.5%, 0.31)" stroke-width="1.5"></path><path d="M1562.47 38.67L1594.08 254.09" stroke="hsla(246.39999999999998, 87.9%, 54.5%, 0.31)" stroke-width="1.5"></path><path d="M1594.08 254.09L1594.08 254.09" stroke="hsla(246.39999999999998, 87.9%, 54.5%, 0.31)" stroke-width="1.5"></path><path d="M1594.08 254.09L1557.67 355.77" stroke="hsla(246.39999999999998, 87.9%, 54.5%, 0.31)" stroke-width="1.5"></path><path d="M1594.08 254.09L1389.7 214.07" stroke="hsla(246.39999999999998, 87.9%, 54.5%, 0.31)" stroke-width="1.5"></path><path d="M1557.67 355.77L1557.67 355.77" stroke="hsla(246.39999999999998, 87.9%, 54.5%, 0.31)" stroke-width="1.5"></path><path d="M1557.67 355.77L1389.7 214.07" stroke="hsla(246.39999999999998, 87.9%, 54.5%, 0.31)" stroke-width="1.5"></path><path d="M1557.67 355.77L1397.36 549.32" stroke="hsla(246.39999999999998, 87.9%, 54.5%, 0.31)" stroke-width="1.5"></path><path d="M1557.67 355.77L1304.47 244.22" stroke="hsla(246.39999999999998, 87.9%, 54.5%, 0.31)" stroke-width="1.5"></path><path d="M1609.03 684.06L1609.03 684.06" stroke="hsla(246.39999999999998, 87.9%, 54.5%, 0.31)" stroke-width="1.5"></path><path d="M1609.03 684.06L1397.36 549.32" stroke="hsla(246.39999999999998, 87.9%, 54.5%, 0.31)" stroke-width="1.5"></path><path d="M1609.03 684.06L1557.67 355.77" stroke="hsla(246.39999999999998, 87.9%, 54.5%, 0.31)" stroke-width="1.5"></path><circle r="25" cx="38.54" cy="500.64" fill="url(&quot;#SvgjsRadialGradient1337&quot;)"></circle><circle r="25" cx="1249.71" cy="-75.9" fill="url(&quot;#SvgjsRadialGradient1337&quot;)"></circle><circle r="25" cx="1403.9" cy="389.37" fill="url(&quot;#SvgjsRadialGradient1337&quot;)"></circle><circle r="25" cx="1551.97" cy="519.52" fill="url(&quot;#SvgjsRadialGradient1337&quot;)"></circle><circle r="5" cx="-52.48" cy="560.05" fill="rgba(221, 218, 247, 0.655)"></circle><circle r="5" cx="-82.91" cy="654.06" fill="rgba(221, 218, 247, 0.655)"></circle><circle r="5" cx="61.37" cy="708.89" fill="rgba(221, 218, 247, 0.655)"></circle><circle r="5" cx="211.67" cy="499.28" fill="rgba(221, 218, 247, 0.655)"></circle><circle r="5" cx="259.02" cy="675.13" fill="rgba(221, 218, 247, 0.655)"></circle><circle r="5" cx="371.18" cy="491.63" fill="rgba(221, 218, 247, 0.655)"></circle><circle r="5" cx="373.28" cy="678.18" fill="rgba(221, 218, 247, 0.655)"></circle><circle r="5" cx="495.08" cy="531.5" fill="rgba(221, 218, 247, 0.655)"></circle><circle r="5" cx="530.62" cy="690.22" fill="rgba(221, 218, 247, 0.655)"></circle><circle r="5" cx="673.3" cy="490.43" fill="rgba(221, 218, 247, 0.655)"></circle><circle r="5" cx="666.62" cy="682.01" fill="rgba(221, 218, 247, 0.655)"></circle><circle r="5" cx="856.98" cy="405.93" fill="rgba(221, 218, 247, 0.655)"></circle><circle r="5" cx="820.76" cy="505.54" fill="rgba(221, 218, 247, 0.655)"></circle><circle r="5" cx="822.57" cy="707.99" fill="rgba(221, 218, 247, 0.655)"></circle><circle r="5" cx="966" cy="368.34" fill="rgba(221, 218, 247, 0.655)"></circle><circle r="5" cx="998.05" cy="495.88" fill="rgba(221, 218, 247, 0.655)"></circle><circle r="5" cx="962.27" cy="674.91" fill="rgba(221, 218, 247, 0.655)"></circle><circle r="5" cx="1160.69" cy="257.91" fill="rgba(221, 218, 247, 0.655)"></circle><circle r="5" cx="1143.85" cy="371.88" fill="rgba(221, 218, 247, 0.655)"></circle><circle r="5" cx="1123.14" cy="505.47" fill="rgba(221, 218, 247, 0.655)"></circle><circle r="5" cx="1160.7" cy="676.9" fill="rgba(221, 218, 247, 0.655)"></circle><circle r="5" cx="1309.28" cy="99.14" fill="rgba(221, 218, 247, 0.655)"></circle><circle r="5" cx="1304.47" cy="244.22" fill="rgba(221, 218, 247, 0.655)"></circle><circle r="5" cx="1253.95" cy="390.34" fill="rgba(221, 218, 247, 0.655)"></circle><circle r="5" cx="1255.71" cy="538.9" fill="rgba(221, 218, 247, 0.655)"></circle><circle r="5" cx="1263.75" cy="684.51" fill="rgba(221, 218, 247, 0.655)"></circle><circle r="5" cx="1410.4" cy="-51.43" fill="rgba(221, 218, 247, 0.655)"></circle><circle r="5" cx="1387.61" cy="51.16" fill="rgba(221, 218, 247, 0.655)"></circle><circle r="5" cx="1389.7" cy="214.07" fill="rgba(221, 218, 247, 0.655)"></circle><circle r="5" cx="1397.36" cy="549.32" fill="rgba(221, 218, 247, 0.655)"></circle><circle r="5" cx="1398.19" cy="693.99" fill="rgba(221, 218, 247, 0.655)"></circle><circle r="5" cx="1563.1" cy="-89.21" fill="rgba(221, 218, 247, 0.655)"></circle><circle r="5" cx="1562.47" cy="38.67" fill="rgba(221, 218, 247, 0.655)"></circle><circle r="5" cx="1594.08" cy="254.09" fill="rgba(221, 218, 247, 0.655)"></circle><circle r="5" cx="1557.67" cy="355.77" fill="rgba(221, 218, 247, 0.655)"></circle><circle r="5" cx="1609.03" cy="684.06" fill="rgba(221, 218, 247, 0.655)"></circle></g><defs><mask id="SvgjsMask1336"><rect width="1430" height="558" fill="#ffffff"></rect></mask><radialGradient id="SvgjsRadialGradient1337"><stop stop-color="#ffffff" offset="0.1"></stop><stop stop-color="rgba(33, 13, 201, 0.31)" offset="0.2"></stop><stop stop-color="rgba(33, 13, 201, 0)" offset="1"></stop></radialGradient></defs></svg>